<svg xmlns="http://www.w3.org/2000/svg" viewBox="0 0 960 640" role="img" aria-label="GrowClip web panel mockup">
	<defs><linearGradient id="panel-bg" x1="0" x2="1" y1="0" y2="1"><stop stop-color="#101417"/><stop offset="0.58" stop-color="#18201e"/><stop offset="1" stop-color="#0f172a"/></linearGradient><linearGradient id="panel-card" x1="0" x2="1" y1="0" y2="1"><stop stop-color="#f8fafc"/><stop offset="1" stop-color="#e8f3ef"/></linearGradient><filter id="panel-shadow" x="-20%" y="-20%" width="140%" height="140%"><feDropShadow dx="0" dy="22" stdDeviation="24" flood-color="#020617" flood-opacity="0.3"/></filter></defs>
	<rect width="960" height="640" rx="34" fill="url(#panel-bg)"/><circle cx="818" cy="110" r="154" fill="#22c55e" opacity="0.12"/><circle cx="154" cy="552" r="190" fill="#38bdf8" opacity="0.1"/>
	<g filter="url(#panel-shadow)"><rect x="72" y="58" width="816" height="524" rx="26" fill="#f8fafc"/><rect x="72" y="58" width="816" height="70" rx="26" fill="#0f172a"/><rect x="72" y="102" width="816" height="26" fill="#0f172a"/><text x="110" y="102" fill="#ecfdf5" font-family="Inter, system-ui, sans-serif" font-size="23" font-weight="700">GrowClip Control Room</text><text x="748" y="102" fill="#86efac" font-family="Inter, system-ui, sans-serif" font-size="15" font-weight="700">local online</text><rect x="108" y="160" width="202" height="124" rx="18" fill="url(#panel-card)" stroke="#d1d5db"/><text x="132" y="196" fill="#0f172a" font-family="Inter, system-ui, sans-serif" font-size="17" font-weight="700">Climate</text><text x="132" y="238" fill="#047857" font-family="Inter, system-ui, sans-serif" font-size="40" font-weight="800">24.8°C</text><text x="132" y="262" fill="#475569" font-family="Inter, system-ui, sans-serif" font-size="15">RH 62% · VPD 0.91</text><rect x="336" y="160" width="202" height="124" rx="18" fill="url(#panel-card)" stroke="#d1d5db"/><text x="360" y="196" fill="#0f172a" font-family="Inter, system-ui, sans-serif" font-size="17" font-weight="700">Actuators</text><rect x="360" y="218" width="58" height="24" rx="12" fill="#dcfce7"/><text x="374" y="235" fill="#047857" font-family="Inter, system-ui, sans-serif" font-size="12" font-weight="700">fan on</text><rect x="428" y="218" width="74" height="24" rx="12" fill="#fef3c7"/><text x="442" y="235" fill="#92400e" font-family="Inter, system-ui, sans-serif" font-size="12" font-weight="700">light hold</text><text x="360" y="265" fill="#475569" font-family="Inter, system-ui, sans-serif" font-size="15">manual override ready</text><rect x="564" y="160" width="296" height="124" rx="18" fill="url(#panel-card)" stroke="#d1d5db"/><text x="588" y="196" fill="#0f172a" font-family="Inter, system-ui, sans-serif" font-size="17" font-weight="700">Runtime health</text><text x="588" y="226" fill="#0f766e" font-family="Inter, system-ui, sans-serif" font-size="24" font-weight="800">rules executing</text><text x="588" y="253" fill="#0f766e" font-family="Inter, system-ui, sans-serif" font-size="24" font-weight="800">locally</text><text x="588" y="272" fill="#475569" font-family="Inter, system-ui, sans-serif" font-size="12">MQTT, BLE and Telegram visible</text><rect x="108" y="318" width="716" height="208" rx="22" fill="#ffffff" stroke="#d1d5db"/><text x="132" y="356" fill="#0f172a" font-family="Inter, system-ui, sans-serif" font-size="18" font-weight="800">Last automation decisions</text><g font-family="Inter, system-ui, sans-serif" font-size="15"><rect x="132" y="382" width="668" height="36" rx="10" fill="#ecfdf5"/><text x="154" y="406" fill="#065f46">20:11 · fan switched on · CO₂ threshold · trace 000004d2</text><rect x="132" y="430" width="668" height="36" rx="10" fill="#f8fafc"/><text x="154" y="454" fill="#334155">20:08 · humidity gate skipped · outside air not useful</text><rect x="132" y="478" width="668" height="36" rx="10" fill="#f8fafc"/><text x="154" y="502" fill="#334155">20:02 · BLE battery warning queued to Telegram</text></g></g>
</svg>
